<?xml version="1.0" encoding="UTF-8"?>
<svg width="1024px" height="438px" viewBox="0 0 1024 438" version="1.1" xmlns="http://www.w3.org/2000/svg" xmlns:xlink="http://www.w3.org/1999/xlink">
    <!-- Generator: Sketch 52.4 (67378) - http://www.bohemiancoding.com/sketch -->
    <title>Desktop</title>
    <desc>Created with Sketch.</desc>
    <defs>
        <radialGradient cx="50.0000195%" cy="49.9999822%" fx="50.0000195%" fy="49.9999822%" r="50.0000014%" gradientTransform="translate(0.500000,0.500000),scale(1.000000,0.999538),translate(-0.500000,-0.500000)" id="radialGradient-1">
            <stop stop-color="#FFFFFF" offset="0%"></stop>
            <stop stop-color="#FFFFFF" stop-opacity="0" offset="100%"></stop>
        </radialGradient>
    </defs>
    <g id="Desktop" stroke="none" stroke-width="1" fill="none" fill-rule="evenodd">
        <rect fill="#3C517D" x="0" y="0" width="1024" height="438"></rect>
        <rect id="Rectangle" stroke="#979797" fill="#3C517D" fill-rule="nonzero" x="0.5" y="-16.5" width="1023" height="509"></rect>
        <g id="igloo_night" transform="translate(33.000000, -89.000000)">
            <g id="g4635">
                <path d="M695.00373,364.490937 C695.003747,421.926096 672.198282,477.008867 631.604277,517.621664 C591.010272,558.23446 535.95298,581.050493 478.54438,581.050493 C421.135781,581.050491 366.078491,558.234457 325.484488,517.62166 C284.890486,477.008864 262.085021,421.926095 262.085038,364.490937 C262.085038,244.888436 358.997185,147.931451 478.54438,147.931446 C535.952969,147.931446 591.010252,170.747469 631.604254,211.360252 C672.198257,251.973035 695.00373,307.055789 695.00373,364.490937 Z" id="path4255" fill="#3C517D"></path>
                <path d="M266.145107,404.966411 C249.737727,319.901144 285.583119,233.23861 357.273997,184.646304 C428.964872,136.053998 522.703734,134.883906 595.584086,181.671607 C668.464442,228.459311 706.45986,314.200136 692.178936,399.64847 L478.683467,363.934088 L266.145107,404.966411 Z" id="path4257" fill="#9ADBB6"></path>
                <path d="M265.926036,324.603415 C263.416164,337.75198 262.130258,351.105047 262.084827,364.491158 C262.172351,388.512183 266.253914,412.351267 274.162343,435.032011 L682.947658,435.032011 C690.848747,412.350019 694.923014,388.510968 695.003601,364.491158 C694.958762,351.105102 693.673457,337.752037 691.164188,324.603415 L265.926036,324.603415 Z" id="path4259" fill="#9ADBB6"></path>
                <path d="M357.074049,440.53905 C357.074048,452.494572 340.693562,462.186437 320.487209,462.186438 C310.783774,462.186439 301.477766,459.905739 294.616401,455.846066 C287.755036,451.786393 283.90036,446.280295 283.900359,440.53905 C283.90036,434.797805 287.755036,429.291706 294.616401,425.232033 C301.477766,421.17236 310.783774,418.891661 320.487209,418.891662 C340.693562,418.891662 357.074048,428.583528 357.074049,440.53905 Z" id="path4261" fill="#3C517D"></path>
                <path d="M676.12697,444.868516 C676.126969,456.824039 659.746481,466.515905 639.540126,466.515904 C619.333773,466.515904 602.953288,456.824038 602.953286,444.868516 C602.953288,432.912994 619.333773,423.221129 639.540126,423.221128 C659.746481,423.221128 676.126969,432.912993 676.12697,444.868516 Z" id="path4263" fill="#3C517D"></path>
                <path d="M401.633571,431.019032 C401.633569,442.974554 385.253083,452.666419 365.04673,452.66642 C344.840377,452.666419 328.459892,442.974554 328.45989,431.019032 C328.459892,419.06351 344.840377,409.371644 365.04673,409.371644 C385.253083,409.371644 401.633569,419.06351 401.633571,431.019032 Z" id="path4265" fill="#3C517D"></path>
                <path d="M644.464945,439.483797 C644.464948,445.225044 640.610275,450.731144 633.748909,454.790819 C626.887543,458.850494 617.581533,461.131195 607.878096,461.131194 C598.17466,461.131194 588.868652,458.850492 582.007288,454.790817 C575.145925,450.731143 571.291252,445.225043 571.291256,439.483797 C571.291257,427.528275 587.671743,417.83641 607.878096,417.836409 C617.58153,417.836408 626.887538,420.117107 633.748903,424.17678 C640.610269,428.236453 644.464944,433.742552 644.464945,439.483797 Z" id="path4267" fill="#3C517D"></path>
                <path d="M530.729643,314.044415 C530.729644,314.912665 530.384892,315.745355 529.77123,316.359301 C529.157569,316.973247 528.325264,317.318158 527.457415,317.318158 C526.589566,317.318158 525.757262,316.973247 525.1436,316.359301 C524.529938,315.745355 524.185187,314.912665 524.185187,314.044415 C524.185187,313.176164 524.529938,312.343475 525.1436,311.729529 C525.757262,311.115583 526.589566,310.770671 527.457415,310.770671 C528.325264,310.770671 529.157569,311.115583 529.77123,311.729529 C530.384892,312.343475 530.729644,313.176164 530.729643,314.044415 Z" id="path4269" fill="#FFFFFF"></path>
                <path d="M629.539266,199.465679 C629.539268,217.725021 614.743995,232.527145 596.493096,232.527151 C587.728702,232.527153 579.323274,229.043902 573.125911,222.843672 C566.928548,216.643443 563.446906,208.234127 563.446907,199.465679 C563.446908,190.697232 566.928551,182.287918 573.125914,176.087691 C579.323277,169.887464 587.728703,166.404214 596.493096,166.404216 C614.743991,166.404222 629.539263,181.206341 629.539266,199.465679 Z" id="path4271" fill="url(#radialGradient-1)"></path>
                <path d="M342.407467,258.250084 C342.407468,260.455428 340.620511,262.243214 338.416186,262.243216 C337.357631,262.243217 336.34243,261.822514 335.593918,261.073656 C334.845406,260.324799 334.424896,259.309129 334.424897,258.250084 C334.424896,257.191039 334.845406,256.175369 335.593918,255.426511 C336.34243,254.677654 337.357631,254.25695 338.416186,254.256952 C340.620511,254.256954 342.407468,256.04474 342.407467,258.250084 Z" id="path4273" fill="#FFFFFF"></path>
                <path d="M430.215707,214.325735 C430.215703,216.531075 428.428747,218.318855 426.224426,218.318857 C424.020105,218.318855 422.23315,216.531075 422.233146,214.325735 C422.233145,212.12039 424.020102,210.332605 426.224426,210.332603 C428.428751,210.332605 430.215708,212.12039 430.215707,214.325735 Z" id="path4275" fill="#FFFFFF"></path>
                <path d="M512.036949,234.291376 C512.03695,236.49672 510.249993,238.284506 508.045669,238.284507 C506.987113,238.284509 505.971913,237.863806 505.2234,237.114948 C504.474888,236.36609 504.054379,235.350421 504.054379,234.291376 C504.054379,233.23233 504.474888,232.216661 505.2234,231.467803 C505.971913,230.718945 506.987113,230.298242 508.045669,230.298244 C510.249993,230.298246 512.03695,232.086031 512.036949,234.291376 Z" id="path4277" fill="#FFFFFF"></path>
                <path d="M510.041428,298.181439 C510.041424,300.38678 508.254469,302.17456 506.050148,302.174562 C503.845824,302.174565 502.058863,300.386783 502.058859,298.181439 C502.058858,297.122394 502.479368,296.106724 503.22788,295.357867 C503.976392,294.609009 504.991593,294.188306 506.050148,294.188307 C508.254473,294.188309 510.041429,295.976095 510.041428,298.181439 Z" id="path4279" fill="#FFFFFF"></path>
                <path d="M571.90631,314.154022 C571.906311,316.359366 570.119354,318.147152 567.915029,318.147154 C566.856474,318.147155 565.841273,317.726452 565.092761,316.977595 C564.344249,316.228737 563.923739,315.213067 563.92374,314.154022 C563.923739,313.094977 564.344249,312.079307 565.092761,311.330449 C565.841273,310.581592 566.856474,310.160889 567.915029,310.16089 C570.119354,310.160892 571.906311,311.948678 571.90631,314.154022 Z" id="path4281" fill="#FFFFFF"></path>
                <path d="M667.697018,292.19176 C667.697019,294.397104 665.910063,296.18489 663.705738,296.184892 C662.647182,296.184893 661.631982,295.76419 660.88347,295.015332 C660.134958,294.266475 659.714448,293.250805 659.714449,292.19176 C659.714448,291.132715 660.134958,290.117045 660.88347,289.368187 C661.631982,288.61933 662.647182,288.198627 663.705738,288.198628 C665.910063,288.19863 667.697019,289.986416 667.697018,292.19176 Z" id="path4283" fill="#FFFFFF"></path>
                <path d="M380.324666,196.356586 C380.324667,198.56193 378.53771,200.349716 376.333386,200.349718 C374.129061,200.349716 372.342104,198.56193 372.342106,196.356586 C372.342104,194.151242 374.129061,192.363456 376.333386,192.363454 C378.53771,192.363456 380.324667,194.151242 380.324666,196.356586 Z" id="path4285" fill="#FFFFFF"></path>
                <path d="M373.654363,288.22019 C373.654364,289.279235 373.233854,290.294905 372.485342,291.043763 C371.73683,291.79262 370.721629,292.213323 369.663074,292.213322 C367.458749,292.21332 365.671792,290.425534 365.671793,288.22019 C365.671792,286.014846 367.458749,284.22706 369.663074,284.227058 C370.721629,284.227057 371.73683,284.64776 372.485342,285.396617 C373.233854,286.145475 373.654364,287.161145 373.654363,288.22019 Z" id="path4287" fill="#FFFFFF"></path>
                <path d="M298.9071,320.494454 C298.907101,321.553499 298.486591,322.569169 297.738079,323.318026 C296.989567,324.066884 295.974366,324.487587 294.915811,324.487586 C292.711486,324.487584 290.92453,322.699798 290.924531,320.494454 C290.92453,318.28911 292.711486,316.501324 294.915811,316.501322 C295.974366,316.50132 296.989567,316.922023 297.738079,317.670881 C298.486591,318.419739 298.907101,319.435408 298.9071,320.494454 Z" id="path4289" fill="#FFFFFF"></path>
                <path d="M350.049998,354.343005 C350.049998,355.40205 349.629489,356.41772 348.880976,357.166578 C348.132464,357.915435 347.117264,358.336139 346.058708,358.336137 C343.854384,358.336135 342.067427,356.548349 342.067428,354.343005 C342.067427,352.137661 343.854384,350.349875 346.058708,350.349873 C347.117264,350.349872 348.132464,350.770575 348.880976,351.519433 C349.629489,352.26829 350.049998,353.28396 350.049998,354.343005 Z" id="path4291" fill="#FFFFFF"></path>
                <path d="M278.449899,376.384094 C278.4499,378.589438 276.662943,380.377224 274.458619,380.377226 C272.254294,380.377224 270.467337,378.589438 270.467338,376.384094 C270.467337,374.17875 272.254294,372.390964 274.458619,372.390962 C276.662943,372.390964 278.4499,374.17875 278.449899,376.384094 Z" id="path4293" fill="#FFFFFF"></path>
                <path d="M656.907434,403.148166 C656.907434,404.207212 656.486925,405.222881 655.738412,405.971739 C654.9899,406.720597 653.9747,407.1413 652.916144,407.141298 C650.71182,407.141296 648.924863,405.353511 648.924864,403.148166 C648.924868,400.942826 650.711823,399.155046 652.916144,399.155044 C655.120469,399.15504 656.90743,400.942822 656.907434,403.148166 Z" id="path4295" fill="#FFFFFF"></path>
                <path d="M634.876595,350.407277 C634.876596,352.612621 633.089639,354.400407 630.885315,354.400408 C629.826759,354.40041 628.811559,353.979707 628.063047,353.230849 C627.314534,352.481991 626.894025,351.466322 626.894025,350.407277 C626.894025,349.348231 627.314534,348.332562 628.063047,347.583704 C628.811559,346.834846 629.826759,346.414143 630.885315,346.414145 C633.089639,346.414147 634.876596,348.201932 634.876595,350.407277 Z" id="path4297" fill="#FFFFFF"></path>
                <path d="M608.91182,307.112362 C608.911816,309.317703 607.124861,311.105483 604.92054,311.105485 C602.716215,311.105488 600.929254,309.317707 600.92925,307.112362 C600.92925,306.053317 601.349759,305.037647 602.098271,304.28879 C602.846784,303.539932 603.861984,303.119229 604.92054,303.11923 C607.124864,303.119232 608.911821,304.907018 608.91182,307.112362 Z" id="path4299" fill="#FFFFFF"></path>
                <path d="M682.085329,334.663689 C682.08533,336.869033 680.298374,338.656819 678.094049,338.656821 C675.889725,338.656819 674.102768,336.869033 674.102769,334.663689 C674.102768,332.458345 675.889725,330.670559 678.094049,330.670557 C680.298374,330.670559 682.08533,332.458345 682.085329,334.663689 Z" id="path4301" fill="#FFFFFF"></path>
                <path d="M630.942548,259.881766 C630.942549,260.940811 630.522039,261.95648 629.773527,262.705338 C629.025014,263.454196 628.009814,263.874899 626.951258,263.874897 C624.746934,263.874896 622.959977,262.08711 622.959978,259.881766 C622.959977,257.676421 624.746934,255.888636 626.951258,255.888634 C628.009814,255.888632 629.025014,256.309335 629.773527,257.058193 C630.522039,257.807051 630.942549,258.82272 630.942548,259.881766 Z" id="path4303" fill="#FFFFFF"></path>
                <path d="M564.850032,254.371463 C564.850033,256.576808 563.063077,258.364593 560.858752,258.364595 C558.654427,258.364593 556.867471,256.576808 556.867472,254.371463 C556.867476,252.166123 558.654431,250.378343 560.858752,250.378341 C563.063073,250.378343 564.850028,252.166123 564.850032,254.371463 Z" id="path4305" fill="#FFFFFF"></path>
                <path d="M530.230335,174.866501 C530.230336,177.071846 528.443379,178.859631 526.239055,178.859633 C525.180499,178.859635 524.165299,178.438932 523.416787,177.690074 C522.668275,176.941216 522.247765,175.925547 522.247765,174.866501 C522.247765,173.807456 522.668275,172.791787 523.416787,172.042929 C524.165299,171.294071 525.180499,170.873368 526.239055,170.87337 C528.443379,170.873371 530.230336,172.661157 530.230335,174.866501 Z" id="path4307" fill="#FFFFFF"></path>
                <path d="M464.924762,176.440789 C464.924763,178.646133 463.137806,180.433919 460.933481,180.433921 C458.729157,180.433919 456.9422,178.646133 456.942201,176.440789 C456.9422,174.235445 458.729157,172.447659 460.933481,172.447657 C463.137806,172.447659 464.924763,174.235445 464.924762,176.440789 Z" id="path4309" fill="#FFFFFF"></path>
                <ellipse id="path4311" fill="#FFFFFF" cx="414.511459" cy="160.697285" rx="3.9912837" ry="3.99312993"></ellipse>
                <ellipse id="path4313" fill="#FFFFFF" cx="315.372994" cy="223.67158" rx="3.9912837" ry="3.99312993"></ellipse>
                <path d="M470.432464,264.604749 C470.432465,265.663794 470.011955,266.679464 469.263443,267.428321 C468.514931,268.177179 467.49973,268.597882 466.441175,268.597881 C464.23685,268.597879 462.449893,266.810093 462.449895,264.604749 C462.449899,262.399408 464.236854,260.611628 466.441175,260.611626 C468.645499,260.611623 470.43246,262.399405 470.432464,264.604749 Z" id="path4315" fill="#FFFFFF"></path>
                <path d="M52.4074666,118.250084 C52.4074676,120.455428 50.6205108,122.243214 48.4161863,122.243216 C47.3576307,122.243217 46.3424303,121.822514 45.5939181,121.073656 C44.8454059,120.324799 44.4248963,119.309129 44.4248968,118.250084 C44.4248963,117.191039 44.8454059,116.175369 45.5939181,115.426511 C46.3424303,114.677654 47.3576307,114.25695 48.4161863,114.256952 C50.6205108,114.256954 52.4074676,116.04474 52.4074666,118.250084 Z" id="path4273" fill="#FFFFFF"></path>
                <path d="M222.036949,94.2913756 C222.03695,96.4967197 220.249993,98.2845055 218.045669,98.2845074 C216.987113,98.284509 215.971913,97.8638058 215.2234,97.1149481 C214.474888,96.3660904 214.054379,95.3504208 214.054379,94.2913756 C214.054379,93.2323303 214.474888,92.2166607 215.2234,91.467803 C215.971913,90.7189453 216.987113,90.2982421 218.045669,90.2982437 C220.249993,90.2982456 222.03695,92.0860314 222.036949,94.2913756 Z" id="path4277" fill="#FFFFFF"></path>
                <path d="M220.041428,158.181439 C220.041424,160.38678 218.254469,162.17456 216.050148,162.174562 C213.845824,162.174565 212.058863,160.386783 212.058859,158.181439 C212.058858,157.122394 212.479368,156.106724 213.22788,155.357867 C213.976392,154.609009 214.991593,154.188306 216.050148,154.188307 C218.254473,154.188309 220.041429,155.976095 220.041428,158.181439 Z" id="path4279" fill="#FFFFFF"></path>
                <path d="M83.6543631,148.22019 C83.6543636,149.279235 83.233854,150.294905 82.4853418,151.043763 C81.7368296,151.79262 80.7216291,152.213323 79.6630736,152.213322 C77.458749,152.21332 75.6717922,150.425534 75.6717933,148.22019 C75.6717922,146.014846 77.458749,144.22706 79.6630736,144.227058 C80.7216291,144.227057 81.7368296,144.64776 82.4853418,145.396617 C83.233854,146.145475 83.6543636,147.161145 83.6543631,148.22019 Z" id="path4287" fill="#FFFFFF"></path>
                <path d="M8.90710036,180.494454 C8.90710088,181.553499 8.48659127,182.569169 7.73807907,183.318026 C6.98956687,184.066884 5.97436646,184.487587 4.91581086,184.487586 C2.71148632,184.487584 0.924529506,182.699798 0.924530574,180.494454 C0.924529506,178.28911 2.71148632,176.501324 4.91581086,176.501322 C5.97436646,176.50132 6.98956687,176.922023 7.73807907,177.670881 C8.48659127,178.419739 8.90710088,179.435408 8.90710036,180.494454 Z" id="path4289" fill="#FFFFFF"></path>
                <path d="M60.0499977,214.343005 C60.0499983,215.40205 59.6294887,216.41772 58.8809765,217.166578 C58.1324643,217.915435 57.1172638,218.336139 56.0587082,218.336137 C53.8543837,218.336135 52.0674269,216.548349 52.067428,214.343005 C52.0674269,212.137661 53.8543837,210.349875 56.0587082,210.349873 C57.1172638,210.349872 58.1324643,210.770575 58.8809765,211.519433 C59.6294887,212.26829 60.0499983,213.28396 60.0499977,214.343005 Z" id="path4291" fill="#FFFFFF"></path>
                <path d="M660.449899,136.384094 C660.4499,138.589438 658.662943,140.377224 656.458619,140.377226 C654.254294,140.377224 652.467337,138.589438 652.467338,136.384094 C652.467337,134.17875 654.254294,132.390964 656.458619,132.390962 C658.662943,132.390964 660.4499,134.17875 660.449899,136.384094 Z" id="path4293" fill="#FFFFFF"></path>
                <path d="M180.432464,124.604749 C180.432465,125.663794 180.011955,126.679464 179.263443,127.428321 C178.514931,128.177179 177.49973,128.597882 176.441175,128.597881 C174.23685,128.597879 172.449893,126.810093 172.449895,124.604749 C172.449899,122.399408 174.236854,120.611628 176.441175,120.611626 C178.645499,120.611623 180.43246,122.399405 180.432464,124.604749 Z" id="path4315" fill="#FFFFFF"></path>
                <path d="M804.407467,118.250084 C804.407468,120.455428 802.620511,122.243214 800.416186,122.243216 C799.357631,122.243217 798.34243,121.822514 797.593918,121.073656 C796.845406,120.324799 796.424896,119.309129 796.424897,118.250084 C796.424896,117.191039 796.845406,116.175369 797.593918,115.426511 C798.34243,114.677654 799.357631,114.25695 800.416186,114.256952 C802.620511,114.256954 804.407468,116.04474 804.407467,118.250084 Z" id="path4273-copy" fill="#FFFFFF"></path>
                <path d="M302.036949,194.291376 C302.03695,196.49672 300.249993,198.284506 298.045669,198.284507 C296.987113,198.284509 295.971913,197.863806 295.2234,197.114948 C294.474888,196.36609 294.054379,195.350421 294.054379,194.291376 C294.054379,193.23233 294.474888,192.216661 295.2234,191.467803 C295.971913,190.718945 296.987113,190.298242 298.045669,190.298244 C300.249993,190.298246 302.03695,192.086031 302.036949,194.291376 Z" id="path4277-copy" fill="#FFFFFF"></path>
                <path d="M300.041428,258.181439 C300.041424,260.38678 298.254469,262.17456 296.050148,262.174562 C293.845824,262.174565 292.058863,260.386783 292.058859,258.181439 C292.058858,257.122394 292.479368,256.106724 293.22788,255.357867 C293.976392,254.609009 294.991593,254.188306 296.050148,254.188307 C298.254473,254.188309 300.041429,255.976095 300.041428,258.181439 Z" id="path4279-copy" fill="#FFFFFF"></path>
                <path d="M163.654363,248.22019 C163.654364,249.279235 163.233854,250.294905 162.485342,251.043763 C161.73683,251.79262 160.721629,252.213323 159.663074,252.213322 C157.458749,252.21332 155.671792,250.425534 155.671793,248.22019 C155.671792,246.014846 157.458749,244.22706 159.663074,244.227058 C160.721629,244.227057 161.73683,244.64776 162.485342,245.396617 C163.233854,246.145475 163.654364,247.161145 163.654363,248.22019 Z" id="path4287-copy" fill="#FFFFFF"></path>
                <path d="M88.9071004,280.494454 C88.9071009,281.553499 88.4865913,282.569169 87.7380791,283.318026 C86.9895669,284.066884 85.9743665,284.487587 84.9158109,284.487586 C82.7114863,284.487584 80.9245295,282.699798 80.9245306,280.494454 C80.9245295,278.28911 82.7114863,276.501324 84.9158109,276.501322 C85.9743665,276.50132 86.9895669,276.922023 87.7380791,277.670881 C88.4865913,278.419739 88.9071009,279.435408 88.9071004,280.494454 Z" id="path4289-copy" fill="#FFFFFF"></path>
                <path d="M140.049998,314.343005 C140.049998,315.40205 139.629489,316.41772 138.880976,317.166578 C138.132464,317.915435 137.117264,318.336139 136.058708,318.336137 C133.854384,318.336135 132.067427,316.548349 132.067428,314.343005 C132.067427,312.137661 133.854384,310.349875 136.058708,310.349873 C137.117264,310.349872 138.132464,310.770575 138.880976,311.519433 C139.629489,312.26829 140.049998,313.28396 140.049998,314.343005 Z" id="path4291-copy" fill="#FFFFFF"></path>
                <path d="M68.4498991,336.384094 C68.4499001,338.589438 66.6629433,340.377224 64.4586188,340.377226 C62.2542942,340.377224 60.4673374,338.589438 60.4673385,336.384094 C60.4673374,334.17875 62.2542942,332.390964 64.4586188,332.390962 C66.6629433,332.390964 68.4499001,334.17875 68.4498991,336.384094 Z" id="path4293-copy" fill="#FFFFFF"></path>
                <path d="M260.432464,224.604749 C260.432465,225.663794 260.011955,226.679464 259.263443,227.428321 C258.514931,228.177179 257.49973,228.597882 256.441175,228.597881 C254.23685,228.597879 252.449893,226.810093 252.449895,224.604749 C252.449899,222.399408 254.236854,220.611628 256.441175,220.611626 C258.645499,220.611623 260.43246,222.399405 260.432464,224.604749 Z" id="path4315-copy" fill="#FFFFFF"></path>
                <path d="M749.407467,298.250084 C749.407468,300.455428 747.620511,302.243214 745.416186,302.243216 C744.357631,302.243217 743.34243,301.822514 742.593918,301.073656 C741.845406,300.324799 741.424896,299.309129 741.424897,298.250084 C741.424896,297.191039 741.845406,296.175369 742.593918,295.426511 C743.34243,294.677654 744.357631,294.25695 745.416186,294.256952 C747.620511,294.256954 749.407468,296.04474 749.407467,298.250084 Z" id="path4273-copy-2" fill="#FFFFFF"></path>
                <path d="M247.036949,374.291376 C247.03695,376.49672 245.249993,378.284506 243.045669,378.284507 C241.987113,378.284509 240.971913,377.863806 240.2234,377.114948 C239.474888,376.36609 239.054379,375.350421 239.054379,374.291376 C239.054379,373.23233 239.474888,372.216661 240.2234,371.467803 C240.971913,370.718945 241.987113,370.298242 243.045669,370.298244 C245.249993,370.298246 247.03695,372.086031 247.036949,374.291376 Z" id="path4277-copy-2" fill="#FFFFFF"></path>
                <path d="M917.041428,338.181439 C917.041424,340.38678 915.254469,342.17456 913.050148,342.174562 C910.845824,342.174565 909.058863,340.386783 909.058859,338.181439 C909.058858,337.122394 909.479368,336.106724 910.22788,335.357867 C910.976392,334.609009 911.991593,334.188306 913.050148,334.188307 C915.254473,334.188309 917.041429,335.976095 917.041428,338.181439 Z" id="path4279-copy-2" fill="#FFFFFF"></path>
                <path d="M158.654363,168.22019 C158.654364,169.279235 158.233854,170.294905 157.485342,171.043763 C156.73683,171.79262 155.721629,172.213323 154.663074,172.213322 C152.458749,172.21332 150.671792,170.425534 150.671793,168.22019 C150.671792,166.014846 152.458749,164.22706 154.663074,164.227058 C155.721629,164.227057 156.73683,164.64776 157.485342,165.396617 C158.233854,166.145475 158.654364,167.161145 158.654363,168.22019 Z" id="path4287-copy-2" fill="#FFFFFF"></path>
                <path d="M83.9071004,200.494454 C83.9071009,201.553499 83.4865913,202.569169 82.7380791,203.318026 C81.9895669,204.066884 80.9743665,204.487587 79.9158109,204.487586 C77.7114863,204.487584 75.9245295,202.699798 75.9245306,200.494454 C75.9245295,198.28911 77.7114863,196.501324 79.9158109,196.501322 C80.9743665,196.50132 81.9895669,196.922023 82.7380791,197.670881 C83.4865913,198.419739 83.9071009,199.435408 83.9071004,200.494454 Z" id="path4289-copy-2" fill="#FFFFFF"></path>
                <path d="M135.049998,234.343005 C135.049998,235.40205 134.629489,236.41772 133.880976,237.166578 C133.132464,237.915435 132.117264,238.336139 131.058708,238.336137 C128.854384,238.336135 127.067427,236.548349 127.067428,234.343005 C127.067427,232.137661 128.854384,230.349875 131.058708,230.349873 C132.117264,230.349872 133.132464,230.770575 133.880976,231.519433 C134.629489,232.26829 135.049998,233.28396 135.049998,234.343005 Z" id="path4291-copy-2" fill="#FFFFFF"></path>
                <path d="M63.4498991,256.384094 C63.4499001,258.589438 61.6629433,260.377224 59.4586188,260.377226 C57.2542942,260.377224 55.4673374,258.589438 55.4673385,256.384094 C55.4673374,254.17875 57.2542942,252.390964 59.4586188,252.390962 C61.6629433,252.390964 63.4499001,254.17875 63.4498991,256.384094 Z" id="path4293-copy-2" fill="#FFFFFF"></path>
                <path d="M205.432464,404.604749 C205.432465,405.663794 205.011955,406.679464 204.263443,407.428321 C203.514931,408.177179 202.49973,408.597882 201.441175,408.597881 C199.23685,408.597879 197.449893,406.810093 197.449895,404.604749 C197.449899,402.399408 199.236854,400.611628 201.441175,400.611626 C203.645499,400.611623 205.43246,402.399405 205.432464,404.604749 Z" id="path4315-copy-2" fill="#FFFFFF"></path>
                <path d="M950.041428,308.181439 C950.041424,310.38678 948.254469,312.17456 946.050148,312.174562 C943.845824,312.174565 942.058863,310.386783 942.058859,308.181439 C942.058858,307.122394 942.479368,306.106724 943.22788,305.357867 C943.976392,304.609009 944.991593,304.188306 946.050148,304.188307 C948.254473,304.188309 950.041429,305.976095 950.041428,308.181439 Z" id="path4279-copy-4" fill="#FFFFFF"></path>
                <path d="M813.654363,298.22019 C813.654364,299.279235 813.233854,300.294905 812.485342,301.043763 C811.73683,301.79262 810.721629,302.213323 809.663074,302.213322 C807.458749,302.21332 805.671792,300.425534 805.671793,298.22019 C805.671792,296.014846 807.458749,294.22706 809.663074,294.227058 C810.721629,294.227057 811.73683,294.64776 812.485342,295.396617 C813.233854,296.145475 813.654364,297.161145 813.654363,298.22019 Z" id="path4287-copy-4" fill="#FFFFFF"></path>
                <path d="M738.9071,330.494454 C738.907101,331.553499 738.486591,332.569169 737.738079,333.318026 C736.989567,334.066884 735.974366,334.487587 734.915811,334.487586 C732.711486,334.487584 730.92453,332.699798 730.924531,330.494454 C730.92453,328.28911 732.711486,326.501324 734.915811,326.501322 C735.974366,326.50132 736.989567,326.922023 737.738079,327.670881 C738.486591,328.419739 738.907101,329.435408 738.9071,330.494454 Z" id="path4289-copy-5" fill="#FFFFFF"></path>
                <path d="M910.432464,274.604749 C910.432465,275.663794 910.011955,276.679464 909.263443,277.428321 C908.514931,278.177179 907.49973,278.597882 906.441175,278.597881 C904.23685,278.597879 902.449893,276.810093 902.449895,274.604749 C902.449899,272.399408 904.236854,270.611628 906.441175,270.611626 C908.645499,270.611623 910.43246,272.399405 910.432464,274.604749 Z" id="path4315-copy-5" fill="#FFFFFF"></path>
                <path d="M777.407467,188.250084 C777.407468,190.455428 775.620511,192.243214 773.416186,192.243216 C772.357631,192.243217 771.34243,191.822514 770.593918,191.073656 C769.845406,190.324799 769.424896,189.309129 769.424897,188.250084 C769.424896,187.191039 769.845406,186.175369 770.593918,185.426511 C771.34243,184.677654 772.357631,184.25695 773.416186,184.256952 C775.620511,184.256954 777.407468,186.04474 777.407467,188.250084 Z" id="path4273-copy-4" fill="#FFFFFF"></path>
                <path d="M733.9071,250.494454 C733.907101,251.553499 733.486591,252.569169 732.738079,253.318026 C731.989567,254.066884 730.974366,254.487587 729.915811,254.487586 C727.711486,254.487584 725.92453,252.699798 725.924531,250.494454 C725.92453,248.28911 727.711486,246.501324 729.915811,246.501322 C730.974366,246.50132 731.989567,246.922023 732.738079,247.670881 C733.486591,248.419739 733.907101,249.435408 733.9071,250.494454 Z" id="path4289-copy-4" fill="#FFFFFF"></path>
                <path d="M905.432464,194.604749 C905.432465,195.663794 905.011955,196.679464 904.263443,197.428321 C903.514931,198.177179 902.49973,198.597882 901.441175,198.597881 C899.23685,198.597879 897.449893,196.810093 897.449895,194.604749 C897.449899,192.399408 899.236854,190.611628 901.441175,190.611626 C903.645499,190.611623 905.43246,192.399405 905.432464,194.604749 Z" id="path4315-copy-4" fill="#FFFFFF"></path>
                <path d="M363.9071,90.4944537 C363.907101,91.553499 363.486591,92.5691685 362.738079,93.3180263 C361.989567,94.066884 360.974366,94.4875871 359.915811,94.4875856 C357.711486,94.4875837 355.92453,92.6997979 355.924531,90.4944537 C355.92453,88.2891095 357.711486,86.5013237 359.915811,86.5013218 C360.974366,86.5013203 361.989567,86.9220234 362.738079,87.6708812 C363.486591,88.4197389 363.907101,89.4354085 363.9071,90.4944537 Z" id="path4289-copy-3" fill="#FFFFFF"></path>
                <path d="M343.449899,146.384094 C343.4499,148.589438 341.662943,150.377224 339.458619,150.377226 C337.254294,150.377224 335.467337,148.589438 335.467338,146.384094 C335.467337,144.17875 337.254294,142.390964 339.458619,142.390962 C341.662943,142.390964 343.4499,144.17875 343.449899,146.384094 Z" id="path4293-copy-3" fill="#FFFFFF"></path>
                <ellipse id="path4317" fill="#FFFFFF" cx="482.96432" cy="351.981546" rx="3.9912837" ry="3.99312993"></ellipse>
                <path d="M464.396487,311.83706 L465.712087,311.83706 C466.949893,311.83706 467.946392,312.834025 467.946392,314.072393 L467.946392,339.520828 C467.946392,340.759205 466.949893,341.756161 465.712087,341.756161 L464.396487,341.756161 C463.15868,341.756161 462.162182,340.759205 462.162182,339.520828 L462.162182,314.072393 C462.162182,312.834025 463.15868,311.83706 464.396487,311.83706 Z" id="rect4321" fill="#3C517D"></path>
                <path d="M364.262738,442.760094 C360.451025,401.222524 379.960524,360.641801 414.497666,338.268964 C449.034806,315.896128 492.52917,315.663534 526.491119,337.670061 C560.453072,359.676592 578.913286,400.054273 574.024243,441.638376" id="path4325" fill="#3C517D"></path>
                <path d="M365.921277,446.59371 C362.172597,404.866458 381.359485,364.100423 415.325513,341.625425 C449.291535,319.150426 492.066659,318.916773 525.466999,341.023793 C558.867343,363.130814 577.022293,403.692875 572.214101,445.466867" id="path4327" fill="#456196"></path>
                <path d="M542.916767,414.975983 C542.931756,440.073744 522.05848,463.059441 488.817324,474.5504 C455.576136,486.041344 415.528775,484.114939 385.022437,469.557538" id="path4329" fill="#456196" transform="translate(463.969602, 448.485081) rotate(42.797311) translate(-463.969602, -448.485081) "></path>
                <rect id="rect4331" fill="#456196" x="366.097286" y="442.466487" width="182.179812" height="4.47456869"></rect>
                <polygon id="path4333" fill="#3C517D" points="557.570521 389.200155 563.380697 387.135198 568.628548 386.384301 541.827032 384.1316 541.264782 389.951061 555.321466 390.701949"></polygon>
                <polygon id="path4335" fill="#456196" transform="translate(464.169641, 307.979725) rotate(2.110307) translate(-464.169641, -307.979725) " points="472.816807 317.299754 464.906103 312.438547 458.952786 319.102782 461.128723 310.074017 452.953408 306.468262 462.208903 305.749384 463.109605 296.856668 466.653878 305.441143 475.385874 303.550898 468.32084 309.575274"></polygon>
                <path d="M542.441279,400.48065 C542.456265,425.578412 521.582989,448.564109 488.341835,460.055067 C455.100673,471.54604 415.053314,469.619671 384.546949,455.062297" id="path4337" stroke-opacity="0.13333333" stroke="#808080" stroke-width="2.07063989" transform="translate(463.494114, 433.989768) rotate(42.797311) translate(-463.494114, -433.989768) "></path>
                <path d="M567.155566,412.325867 C545.299622,421.755351 505.384582,427.940645 463.494465,428.243609 C421.604336,428.546573 384.985113,422.884591 368.747222,413.607211 L366.317775,414.192757 C382.851877,423.639387 419.878316,429.35621 462.444352,429.04837 C505.010448,428.740492 546.232995,422.427762 569.074794,412.572949 L567.155566,412.325867 Z" id="path4339" fill="#3C517D"></path>
                <path d="M567.505696,394.129954 C546.246456,402.506794 507.388545,408.009979 466.575944,408.279554 C425.763338,408.549129 390.079468,403.509372 374.260726,395.25499 L371.718792,395.821657 C387.844058,404.235951 423.943734,409.326695 465.453736,409.052501 C506.963826,408.778327 547.193198,403.155329 569.502506,394.364738 L567.505696,394.129954 Z" id="path4341" fill="#3C517D"></path>
                <path d="M557.617102,375.193736 C538.359165,384.380212 503.187769,390.407171 466.261529,390.702475 C429.335359,390.997732 397.050632,385.47799 382.737908,376.436473 L380.426896,377.04265 C395.025454,386.264673 427.710271,391.844206 465.290995,391.543675 C502.871624,391.243191 539.28031,385.078822 559.454494,375.455281 L557.617102,375.193736 Z" id="path4343" fill="#3C517D"></path>
                <path d="M547.382521,358.646734 C530.248861,368.260199 498.979774,374.560475 466.155939,374.86921 C433.332099,375.177945 404.633241,369.407323 391.910682,359.953982 L389.779223,360.589114 C402.772803,370.243776 431.863252,376.084882 465.312274,375.770285 C498.761375,375.455641 531.162272,369.001085 549.102998,358.934792 L547.382521,358.646734 Z" id="path4345" fill="#3C517D"></path>
                <path d="M529.931951,342.300141 C517.031256,347.669567 493.363875,351.222924 468.374849,351.397263 C443.385819,351.571611 421.502981,348.30621 411.823643,342.971215 L409.349494,343.549626 C419.329011,349.050092 441.621598,352.369236 467.294821,352.190131 C492.968104,352.01099 517.968938,348.332455 531.880781,342.542171 L529.931951,342.300141 Z" id="path4347" fill="#3C517D"></path>
                <path d="M397.119586,456.179372 C397.318853,439.206128 405.328474,411.116012 418.083489,383.238288 C430.838569,355.360481 445.810156,333.057542 457.289965,324.831636 L457.739765,322.427311 C445.984112,330.850897 430.802725,353.479791 417.778476,381.945964 C404.754171,410.412202 396.310403,439.726343 396.098365,457.786625 L397.119586,456.179372 Z" id="path4349" fill="#3C517D"></path>
                <path d="M492.603353,325.243359 C505.212192,336.601847 521.008394,361.170502 533.51038,389.162507 C546.012367,417.154512 553.001532,443.674581 551.595046,457.731305 L553.10273,459.658383 C554.543008,445.263692 547.447267,418.369345 534.68124,389.786088 C521.915166,361.202868 505.486931,335.499801 492.071239,323.414477 L492.603353,325.243359 Z" id="path4351" fill="#3C517D"></path>
                <path d="M473.662311,459.818129 C468.879783,445.364625 466.421011,419.212519 467.344891,391.099172 C468.268752,362.985917 472.449696,337.488495 478.26209,324.511498 L477.780451,321.988495 C471.823574,335.288109 467.579449,361.175987 466.633029,389.975592 C465.686582,418.775113 468.201133,446.299172 473.339085,461.826826 L473.662311,459.818129 Z" id="path4353" fill="#3C517D"></path>
                <path d="M505.190255,459.451779 C503.881436,433.723346 510.580374,408.587587 522.439324,394.729816 C534.298277,380.872043 549.232856,380.727976 560.894307,394.358857 C572.555756,407.989737 578.894405,432.99973 577.215667,458.756986" id="path4357" fill="#3C517D"></path>
                <path d="M531.016245,459.585124 C529.690949,434.562932 536.47422,410.117143 548.482462,396.639766 C560.490705,383.162389 575.61329,383.022274 587.421543,396.278984 C599.229796,409.535694 605.648239,433.859165 603.948367,458.909385" id="path4359" fill="#456196"></path>
                <path d="M545.658132,459.132803 C544.76967,442.358249 549.317087,425.970109 557.367256,416.935048 C565.417428,407.899991 575.555415,407.806063 583.471516,416.693194 C591.387618,425.580321 595.690462,441.886463 594.550891,458.679809" id="path4361" fill="#3C517D"></path>
                <path d="M390.455434,459.591964 C390.455432,471.547486 374.074946,481.239351 353.868593,481.239352 C333.66224,481.239351 317.281755,471.547486 317.281753,459.591964 C317.281755,447.636442 333.66224,437.944577 353.868593,437.944576 C374.074946,437.944577 390.455432,447.636442 390.455434,459.591964 Z" id="path4365" fill="#3C517D"></path>
                <path d="M450.542393,475.17728 C450.542391,487.132802 434.161906,496.824668 413.955553,496.824668 C393.7492,496.824668 377.368714,487.132802 377.368712,475.17728 C377.368714,463.221758 393.7492,453.529893 413.955553,453.529892 C434.161906,453.529893 450.542391,463.221758 450.542393,475.17728 Z" id="path4367" fill="#3C517D"></path>
                <path d="M619.676268,464.044884 C619.676267,476.000406 603.295781,485.692271 583.089428,485.692272 C562.883075,485.692271 546.502589,476.000406 546.502588,464.044884 C546.502584,458.303638 550.357257,452.797538 557.218621,448.737863 C564.079985,444.678189 573.385993,442.397487 583.089428,442.397487 C592.792864,442.397487 602.098872,444.678189 608.960236,448.737863 C615.821599,452.797538 619.676272,458.303638 619.676268,464.044884 Z" id="path4369" fill="#3C517D"></path>
                <path d="M569.083937,481.041884 C569.083936,492.997406 552.70345,502.689271 532.497097,502.689272 C512.290744,502.689271 495.910258,492.997406 495.910256,481.041884 C495.910253,475.300638 499.764925,469.794538 506.626289,465.734863 C513.487653,461.675189 522.793661,459.394487 532.497097,459.394487 C542.200532,459.394487 551.50654,461.675189 558.367904,465.734863 C565.229268,469.794538 569.083941,475.300638 569.083937,481.041884 Z" id="path4371" fill="#3C517D"></path>
                <path d="M515.58063,481.041884 C515.580628,492.997405 499.200145,502.68927 478.993793,502.689272 C458.78744,502.689271 442.406954,492.997406 442.406953,481.041884 C442.406949,475.300638 446.261622,469.794538 453.122986,465.734863 C459.984349,461.675189 469.290357,459.394487 478.993793,459.394487 C488.697228,459.394487 498.003235,461.675189 504.864598,465.734864 C511.725961,469.794539 515.580633,475.300638 515.58063,481.041884 Z" id="path4373" fill="#3C517D"></path>
            </g>
        </g>
    </g>
</svg>