<?xml version="1.0" encoding="UTF-8"?>
<svg width="24px" height="22px" viewBox="0 0 24 22" version="1.1" xmlns="http://www.w3.org/2000/svg" xmlns:xlink="http://www.w3.org/1999/xlink">
    <!-- Generator: Sketch 52.4 (67378) - http://www.bohemiancoding.com/sketch -->
    <title>igloo_icon</title>
    <desc>Created with Sketch.</desc>
    <g id="Page-1" stroke="none" stroke-width="1" fill="none" fill-rule="evenodd">
        <g id="Artboard" transform="translate(-74.000000, -136.000000)" fill="#000000" fill-rule="nonzero">
            <g id="igloo_icon" transform="translate(74.000000, 136.000000)">
                <path d="M11,0.05 C8.43601125,0.261960536 6.00913349,1.29668945 4.081,3 L11,3 L11,0.05 Z M19,9 L17,9 L17,5 L7,5 L7,9 L23.607,9 C23.2366399,7.56168563 22.6010921,6.20512694 21.733,5 L19,5 L19,9 Z M2,11 L0.05,11 C0.023,11.331 0,11.662 0,12 L0,15 L2,15 L2,11 Z M13,0.05 L13,3 L19.919,3 C17.9908665,1.29668945 15.5639888,0.261960536 13,0.05 Z M5,5 L2.267,5 C1.39890788,6.20512694 0.763360132,7.56168563 0.393,9 L5,9 L5,5 Z M20,21 L24,21 L24,17 L20,17 L20,21 Z M0,21 L4,21 L4,17 L0,17 L0,21 Z M23.95,11 L22,11 L22,15 L24,15 L24,12 C24,11.662 23.977,11.331 23.95,11 Z M12,11 L4,11 L4,15 L6.35,15 C6.11962658,15.641695 6.00123714,16.3182061 6,17 L6,22 L8,22 L8,17 C8,14.790861 9.790861,13 12,13 C14.209139,13 16,14.790861 16,17 L16,22 L18,22 L18,21 L18,17 C17.9987629,16.3182061 17.8803734,15.641695 17.65,15 L20,15 L20,11 L12,11 Z" id="igloo-2"></path>
            </g>
        </g>
    </g>
</svg>